<?xml version="1.0" encoding="UTF-8"?><svg xmlns="http://www.w3.org/2000/svg" xmlns:xlink="http://www.w3.org/1999/xlink" stroke-dasharray="none" shape-rendering="auto" font-family="'Dialog'" width="1581" text-rendering="auto" fill-opacity="1" contentScriptType="text/ecmascript" color-interpolation="auto" color-rendering="auto" preserveAspectRatio="xMidYMid meet" font-size="12px" fill="black" stroke="black" image-rendering="auto" stroke-miterlimit="10" zoomAndPan="magnify" version="1.0" stroke-linecap="square" stroke-linejoin="miter" contentStyleType="text/css" font-style="normal" height="858" stroke-width="1" stroke-dashoffset="0" font-weight="normal" stroke-opacity="1">
    <!--Generated by the Batik Graphics2D SVG Generator-->
    <defs id="genericDefs"/>
    <g>
        <defs id="defs1">
            <clipPath clipPathUnits="userSpaceOnUse" id="clipPath1">
                <path d="M39 39 L1556 39 L1556 821 L39 821 L39 39 Z"/>
            </clipPath>
            <clipPath clipPathUnits="userSpaceOnUse" id="clipPath2">
                <path d="M-1 -1 L1582 -1 L1582 859 L-1 859 L-1 -1 Z"/>
            </clipPath>
            <clipPath clipPathUnits="userSpaceOnUse" id="clipPath3">
                <path d="M1407 44 L1552 44 L1552 71 L1407 71 L1407 44 Z"/>
            </clipPath>
        </defs>
        <g fill="white" text-rendering="optimizeLegibility" font-family="'Segoe UI'" stroke-linejoin="round" stroke="white" stroke-width="0" stroke-miterlimit="0">
            <rect x="40" width="1515" height="780" y="40" clip-path="url(#clipPath1)" stroke="none"/>
        </g>
        <g fill="rgb(204,204,204)" text-rendering="optimizeLegibility" stroke-dasharray="3,3" font-family="'Segoe UI'" stroke-linecap="butt" stroke="rgb(204,204,204)">
            <line y2="820" fill="none" x1="40" clip-path="url(#clipPath1)" x2="40" y1="40"/>
            <line y2="820" fill="none" x1="93" clip-path="url(#clipPath1)" x2="93" y1="40"/>
            <line y2="820" fill="none" x1="146" clip-path="url(#clipPath1)" x2="146" y1="40"/>
            <line y2="820" fill="none" x1="199" clip-path="url(#clipPath1)" x2="199" y1="40"/>
            <line y2="820" fill="none" x1="253" clip-path="url(#clipPath1)" x2="253" y1="40"/>
            <line y2="820" fill="none" x1="306" clip-path="url(#clipPath1)" x2="306" y1="40"/>
            <line y2="820" fill="none" x1="359" clip-path="url(#clipPath1)" x2="359" y1="40"/>
            <line y2="820" fill="none" x1="412" clip-path="url(#clipPath1)" x2="412" y1="40"/>
            <line y2="820" fill="none" x1="466" clip-path="url(#clipPath1)" x2="466" y1="40"/>
            <line y2="820" fill="none" x1="519" clip-path="url(#clipPath1)" x2="519" y1="40"/>
            <line y2="820" fill="none" x1="572" clip-path="url(#clipPath1)" x2="572" y1="40"/>
            <line y2="820" fill="none" x1="625" clip-path="url(#clipPath1)" x2="625" y1="40"/>
            <line y2="820" fill="none" x1="679" clip-path="url(#clipPath1)" x2="679" y1="40"/>
            <line y2="820" fill="none" x1="732" clip-path="url(#clipPath1)" x2="732" y1="40"/>
            <line y2="820" fill="none" x1="785" clip-path="url(#clipPath1)" x2="785" y1="40"/>
            <line y2="820" fill="none" x1="839" clip-path="url(#clipPath1)" x2="839" y1="40"/>
            <line y2="820" fill="none" x1="892" clip-path="url(#clipPath1)" x2="892" y1="40"/>
            <line y2="820" fill="none" x1="945" clip-path="url(#clipPath1)" x2="945" y1="40"/>
            <line y2="820" fill="none" x1="998" clip-path="url(#clipPath1)" x2="998" y1="40"/>
            <line y2="820" fill="none" x1="1052" clip-path="url(#clipPath1)" x2="1052" y1="40"/>
            <line y2="820" fill="none" x1="1105" clip-path="url(#clipPath1)" x2="1105" y1="40"/>
            <line y2="820" fill="none" x1="1158" clip-path="url(#clipPath1)" x2="1158" y1="40"/>
            <line y2="820" fill="none" x1="1211" clip-path="url(#clipPath1)" x2="1211" y1="40"/>
            <line y2="820" fill="none" x1="1265" clip-path="url(#clipPath1)" x2="1265" y1="40"/>
            <line y2="820" fill="none" x1="1318" clip-path="url(#clipPath1)" x2="1318" y1="40"/>
            <line y2="820" fill="none" x1="1371" clip-path="url(#clipPath1)" x2="1371" y1="40"/>
            <line y2="820" fill="none" x1="1424" clip-path="url(#clipPath1)" x2="1424" y1="40"/>
            <line y2="820" fill="none" x1="1478" clip-path="url(#clipPath1)" x2="1478" y1="40"/>
            <line y2="820" fill="none" x1="1531" clip-path="url(#clipPath1)" x2="1531" y1="40"/>
            <line y2="739" fill="none" x1="40" clip-path="url(#clipPath1)" x2="1555" y1="739"/>
            <line y2="641" fill="none" x1="40" clip-path="url(#clipPath1)" x2="1555" y1="641"/>
            <line y2="543" fill="none" x1="40" clip-path="url(#clipPath1)" x2="1555" y1="543"/>
            <line y2="446" fill="none" x1="40" clip-path="url(#clipPath1)" x2="1555" y1="446"/>
            <line y2="348" fill="none" x1="40" clip-path="url(#clipPath1)" x2="1555" y1="348"/>
            <line y2="250" fill="none" x1="40" clip-path="url(#clipPath1)" x2="1555" y1="250"/>
            <line y2="153" fill="none" x1="40" clip-path="url(#clipPath1)" x2="1555" y1="153"/>
            <line y2="55" fill="none" x1="40" clip-path="url(#clipPath1)" x2="1555" y1="55"/>
            <circle fill="rgb(23,190,207)" r="3" clip-path="url(#clipPath1)" cx="135" cy="504" stroke="none"/>
            <circle fill="rgb(23,190,207)" r="3" clip-path="url(#clipPath1)" cx="231" cy="700" stroke="none"/>
            <circle fill="rgb(23,190,207)" r="3" clip-path="url(#clipPath1)" cx="327" cy="661" stroke="none"/>
            <circle fill="rgb(23,190,207)" r="3" clip-path="url(#clipPath1)" cx="423" cy="622" stroke="none"/>
            <circle fill="rgb(23,190,207)" r="3" clip-path="url(#clipPath1)" cx="519" cy="661" stroke="none"/>
            <circle fill="rgb(23,190,207)" r="3" clip-path="url(#clipPath1)" cx="615" cy="661" stroke="none"/>
            <circle fill="rgb(23,190,207)" r="3" clip-path="url(#clipPath1)" cx="711" cy="622" stroke="none"/>
            <circle fill="rgb(23,190,207)" r="3" clip-path="url(#clipPath1)" cx="807" cy="700" stroke="none"/>
            <circle fill="rgb(23,190,207)" r="3" clip-path="url(#clipPath1)" cx="902" cy="739" stroke="none"/>
            <circle fill="rgb(23,190,207)" r="3" clip-path="url(#clipPath1)" cx="998" cy="446" stroke="none"/>
            <circle fill="rgb(23,190,207)" r="3" clip-path="url(#clipPath1)" cx="1094" cy="817" stroke="none"/>
            <circle fill="rgb(23,190,207)" r="3" clip-path="url(#clipPath1)" cx="1286" cy="543" stroke="none"/>
            <circle fill="rgb(23,190,207)" r="3" clip-path="url(#clipPath1)" cx="1382" cy="778" stroke="none"/>
            <circle fill="rgb(23,190,207)" r="3" clip-path="url(#clipPath1)" cx="1478" cy="465" stroke="none"/>
            <circle fill="rgb(23,190,207)" r="3" clip-path="url(#clipPath1)" cx="1574" cy="719" stroke="none"/>
            <circle fill="rgb(23,190,207)" r="3" clip-path="url(#clipPath1)" cx="1669" cy="583" stroke="none"/>
            <rect x="40" y="40" clip-path="url(#clipPath2)" fill="none" width="1515" stroke-dasharray="none" height="780" stroke="black"/>
        </g>
        <g text-rendering="optimizeLegibility" font-size="13px" font-family="'Arial'" stroke-linecap="butt">
            <text x="730" xml:space="preserve" y="12" clip-path="url(#clipPath2)" stroke="none">Empty spots on ferry</text>
            <rect x="1408" y="45" clip-path="url(#clipPath3)" fill="white" width="142" opacity="0.753" height="24" stroke="none"/>
            <circle fill="rgb(23,190,207)" r="3" clip-path="url(#clipPath3)" cx="1421" cy="57" stroke="none"/>
            <text x="1430" xml:space="preserve" font-size="10px" y="60" clip-path="url(#clipPath3)" stroke="none">0 in FerrySimulation.pier</text>
            <line y2="38" fill="none" x1="40" clip-path="url(#clipPath2)" x2="1555" y1="38"/>
            <line y2="822" fill="none" x1="40" clip-path="url(#clipPath2)" x2="1555" y1="822"/>
            <text x="786" xml:space="preserve" font-size="10px" y="856" clip-path="url(#clipPath2)" stroke="none">Time</text>
            <line y2="38" fill="none" x1="40" clip-path="url(#clipPath2)" x2="40" y1="34"/>
            <line y2="822" fill="none" x1="40" clip-path="url(#clipPath2)" x2="40" y1="826"/>
            <text x="38" xml:space="preserve" font-size="10px" y="31" clip-path="url(#clipPath2)" stroke="none">0</text>
            <text x="38" xml:space="preserve" font-size="10px" y="837" clip-path="url(#clipPath2)" stroke="none">0</text>
            <line y2="38" fill="none" x1="66" clip-path="url(#clipPath2)" x2="66" y1="36"/>
            <line y2="822" fill="none" x1="66" clip-path="url(#clipPath2)" x2="66" y1="824"/>
            <line y2="38" fill="none" x1="93" clip-path="url(#clipPath2)" x2="93" y1="34"/>
            <line y2="822" fill="none" x1="93" clip-path="url(#clipPath2)" x2="93" y1="826"/>
            <text x="81" xml:space="preserve" font-size="10px" y="31" clip-path="url(#clipPath2)" stroke="none">2 000</text>
            <text x="81" xml:space="preserve" font-size="10px" y="837" clip-path="url(#clipPath2)" stroke="none">2 000</text>
            <line y2="38" fill="none" x1="119" clip-path="url(#clipPath2)" x2="119" y1="36"/>
            <line y2="822" fill="none" x1="119" clip-path="url(#clipPath2)" x2="119" y1="824"/>
            <line y2="38" fill="none" x1="146" clip-path="url(#clipPath2)" x2="146" y1="34"/>
            <line y2="822" fill="none" x1="146" clip-path="url(#clipPath2)" x2="146" y1="826"/>
            <text x="134" xml:space="preserve" font-size="10px" y="31" clip-path="url(#clipPath2)" stroke="none">4 000</text>
            <text x="134" xml:space="preserve" font-size="10px" y="837" clip-path="url(#clipPath2)" stroke="none">4 000</text>
            <line y2="38" fill="none" x1="173" clip-path="url(#clipPath2)" x2="173" y1="36"/>
            <line y2="822" fill="none" x1="173" clip-path="url(#clipPath2)" x2="173" y1="824"/>
            <line y2="38" fill="none" x1="199" clip-path="url(#clipPath2)" x2="199" y1="34"/>
            <line y2="822" fill="none" x1="199" clip-path="url(#clipPath2)" x2="199" y1="826"/>
            <text x="187" xml:space="preserve" font-size="10px" y="31" clip-path="url(#clipPath2)" stroke="none">6 000</text>
            <text x="187" xml:space="preserve" font-size="10px" y="837" clip-path="url(#clipPath2)" stroke="none">6 000</text>
            <line y2="38" fill="none" x1="226" clip-path="url(#clipPath2)" x2="226" y1="36"/>
            <line y2="822" fill="none" x1="226" clip-path="url(#clipPath2)" x2="226" y1="824"/>
            <line y2="38" fill="none" x1="253" clip-path="url(#clipPath2)" x2="253" y1="34"/>
            <line y2="822" fill="none" x1="253" clip-path="url(#clipPath2)" x2="253" y1="826"/>
            <text x="241" xml:space="preserve" font-size="10px" y="31" clip-path="url(#clipPath2)" stroke="none">8 000</text>
            <text x="241" xml:space="preserve" font-size="10px" y="837" clip-path="url(#clipPath2)" stroke="none">8 000</text>
            <line y2="38" fill="none" x1="279" clip-path="url(#clipPath2)" x2="279" y1="36"/>
            <line y2="822" fill="none" x1="279" clip-path="url(#clipPath2)" x2="279" y1="824"/>
            <line y2="38" fill="none" x1="306" clip-path="url(#clipPath2)" x2="306" y1="34"/>
            <line y2="822" fill="none" x1="306" clip-path="url(#clipPath2)" x2="306" y1="826"/>
            <text x="292" xml:space="preserve" font-size="10px" y="31" clip-path="url(#clipPath2)" stroke="none">10 000</text>
            <text x="292" xml:space="preserve" font-size="10px" y="837" clip-path="url(#clipPath2)" stroke="none">10 000</text>
            <line y2="38" fill="none" x1="332" clip-path="url(#clipPath2)" x2="332" y1="36"/>
            <line y2="822" fill="none" x1="332" clip-path="url(#clipPath2)" x2="332" y1="824"/>
            <line y2="38" fill="none" x1="359" clip-path="url(#clipPath2)" x2="359" y1="34"/>
            <line y2="822" fill="none" x1="359" clip-path="url(#clipPath2)" x2="359" y1="826"/>
            <text x="345" xml:space="preserve" font-size="10px" y="31" clip-path="url(#clipPath2)" stroke="none">12 000</text>
            <text x="345" xml:space="preserve" font-size="10px" y="837" clip-path="url(#clipPath2)" stroke="none">12 000</text>
            <line y2="38" fill="none" x1="386" clip-path="url(#clipPath2)" x2="386" y1="36"/>
            <line y2="822" fill="none" x1="386" clip-path="url(#clipPath2)" x2="386" y1="824"/>
            <line y2="38" fill="none" x1="412" clip-path="url(#clipPath2)" x2="412" y1="34"/>
            <line y2="822" fill="none" x1="412" clip-path="url(#clipPath2)" x2="412" y1="826"/>
            <text x="398" xml:space="preserve" font-size="10px" y="31" clip-path="url(#clipPath2)" stroke="none">14 000</text>
            <text x="398" xml:space="preserve" font-size="10px" y="837" clip-path="url(#clipPath2)" stroke="none">14 000</text>
            <line y2="38" fill="none" x1="439" clip-path="url(#clipPath2)" x2="439" y1="36"/>
            <line y2="822" fill="none" x1="439" clip-path="url(#clipPath2)" x2="439" y1="824"/>
            <line y2="38" fill="none" x1="466" clip-path="url(#clipPath2)" x2="466" y1="34"/>
            <line y2="822" fill="none" x1="466" clip-path="url(#clipPath2)" x2="466" y1="826"/>
            <text x="452" xml:space="preserve" font-size="10px" y="31" clip-path="url(#clipPath2)" stroke="none">16 000</text>
            <text x="452" xml:space="preserve" font-size="10px" y="837" clip-path="url(#clipPath2)" stroke="none">16 000</text>
            <line y2="38" fill="none" x1="492" clip-path="url(#clipPath2)" x2="492" y1="36"/>
            <line y2="822" fill="none" x1="492" clip-path="url(#clipPath2)" x2="492" y1="824"/>
            <line y2="38" fill="none" x1="519" clip-path="url(#clipPath2)" x2="519" y1="34"/>
            <line y2="822" fill="none" x1="519" clip-path="url(#clipPath2)" x2="519" y1="826"/>
            <text x="505" xml:space="preserve" font-size="10px" y="31" clip-path="url(#clipPath2)" stroke="none">18 000</text>
            <text x="505" xml:space="preserve" font-size="10px" y="837" clip-path="url(#clipPath2)" stroke="none">18 000</text>
            <line y2="38" fill="none" x1="546" clip-path="url(#clipPath2)" x2="546" y1="36"/>
            <line y2="822" fill="none" x1="546" clip-path="url(#clipPath2)" x2="546" y1="824"/>
            <line y2="38" fill="none" x1="572" clip-path="url(#clipPath2)" x2="572" y1="34"/>
            <line y2="822" fill="none" x1="572" clip-path="url(#clipPath2)" x2="572" y1="826"/>
            <text x="558" xml:space="preserve" font-size="10px" y="31" clip-path="url(#clipPath2)" stroke="none">20 000</text>
            <text x="558" xml:space="preserve" font-size="10px" y="837" clip-path="url(#clipPath2)" stroke="none">20 000</text>
            <line y2="38" fill="none" x1="599" clip-path="url(#clipPath2)" x2="599" y1="36"/>
            <line y2="822" fill="none" x1="599" clip-path="url(#clipPath2)" x2="599" y1="824"/>
            <line y2="38" fill="none" x1="625" clip-path="url(#clipPath2)" x2="625" y1="34"/>
            <line y2="822" fill="none" x1="625" clip-path="url(#clipPath2)" x2="625" y1="826"/>
            <text x="611" xml:space="preserve" font-size="10px" y="31" clip-path="url(#clipPath2)" stroke="none">22 000</text>
            <text x="611" xml:space="preserve" font-size="10px" y="837" clip-path="url(#clipPath2)" stroke="none">22 000</text>
            <line y2="38" fill="none" x1="652" clip-path="url(#clipPath2)" x2="652" y1="36"/>
            <line y2="822" fill="none" x1="652" clip-path="url(#clipPath2)" x2="652" y1="824"/>
            <line y2="38" fill="none" x1="679" clip-path="url(#clipPath2)" x2="679" y1="34"/>
            <line y2="822" fill="none" x1="679" clip-path="url(#clipPath2)" x2="679" y1="826"/>
            <text x="665" xml:space="preserve" font-size="10px" y="31" clip-path="url(#clipPath2)" stroke="none">24 000</text>
            <text x="665" xml:space="preserve" font-size="10px" y="837" clip-path="url(#clipPath2)" stroke="none">24 000</text>
            <line y2="38" fill="none" x1="705" clip-path="url(#clipPath2)" x2="705" y1="36"/>
            <line y2="822" fill="none" x1="705" clip-path="url(#clipPath2)" x2="705" y1="824"/>
            <line y2="38" fill="none" x1="732" clip-path="url(#clipPath2)" x2="732" y1="34"/>
            <line y2="822" fill="none" x1="732" clip-path="url(#clipPath2)" x2="732" y1="826"/>
            <text x="718" xml:space="preserve" font-size="10px" y="31" clip-path="url(#clipPath2)" stroke="none">26 000</text>
            <text x="718" xml:space="preserve" font-size="10px" y="837" clip-path="url(#clipPath2)" stroke="none">26 000</text>
            <line y2="38" fill="none" x1="759" clip-path="url(#clipPath2)" x2="759" y1="36"/>
            <line y2="822" fill="none" x1="759" clip-path="url(#clipPath2)" x2="759" y1="824"/>
            <line y2="38" fill="none" x1="785" clip-path="url(#clipPath2)" x2="785" y1="34"/>
            <line y2="822" fill="none" x1="785" clip-path="url(#clipPath2)" x2="785" y1="826"/>
            <text x="771" xml:space="preserve" font-size="10px" y="31" clip-path="url(#clipPath2)" stroke="none">28 000</text>
            <text x="771" xml:space="preserve" font-size="10px" y="837" clip-path="url(#clipPath2)" stroke="none">28 000</text>
            <line y2="38" fill="none" x1="812" clip-path="url(#clipPath2)" x2="812" y1="36"/>
            <line y2="822" fill="none" x1="812" clip-path="url(#clipPath2)" x2="812" y1="824"/>
            <line y2="38" fill="none" x1="839" clip-path="url(#clipPath2)" x2="839" y1="34"/>
            <line y2="822" fill="none" x1="839" clip-path="url(#clipPath2)" x2="839" y1="826"/>
            <text x="825" xml:space="preserve" font-size="10px" y="31" clip-path="url(#clipPath2)" stroke="none">30 000</text>
            <text x="825" xml:space="preserve" font-size="10px" y="837" clip-path="url(#clipPath2)" stroke="none">30 000</text>
            <line y2="38" fill="none" x1="865" clip-path="url(#clipPath2)" x2="865" y1="36"/>
            <line y2="822" fill="none" x1="865" clip-path="url(#clipPath2)" x2="865" y1="824"/>
            <line y2="38" fill="none" x1="892" clip-path="url(#clipPath2)" x2="892" y1="34"/>
            <line y2="822" fill="none" x1="892" clip-path="url(#clipPath2)" x2="892" y1="826"/>
            <text x="878" xml:space="preserve" font-size="10px" y="31" clip-path="url(#clipPath2)" stroke="none">32 000</text>
            <text x="878" xml:space="preserve" font-size="10px" y="837" clip-path="url(#clipPath2)" stroke="none">32 000</text>
            <line y2="38" fill="none" x1="918" clip-path="url(#clipPath2)" x2="918" y1="36"/>
            <line y2="822" fill="none" x1="918" clip-path="url(#clipPath2)" x2="918" y1="824"/>
            <line y2="38" fill="none" x1="945" clip-path="url(#clipPath2)" x2="945" y1="34"/>
            <line y2="822" fill="none" x1="945" clip-path="url(#clipPath2)" x2="945" y1="826"/>
            <text x="931" xml:space="preserve" font-size="10px" y="31" clip-path="url(#clipPath2)" stroke="none">34 000</text>
            <text x="931" xml:space="preserve" font-size="10px" y="837" clip-path="url(#clipPath2)" stroke="none">34 000</text>
            <line y2="38" fill="none" x1="972" clip-path="url(#clipPath2)" x2="972" y1="36"/>
            <line y2="822" fill="none" x1="972" clip-path="url(#clipPath2)" x2="972" y1="824"/>
            <line y2="38" fill="none" x1="998" clip-path="url(#clipPath2)" x2="998" y1="34"/>
            <line y2="822" fill="none" x1="998" clip-path="url(#clipPath2)" x2="998" y1="826"/>
            <text x="984" xml:space="preserve" font-size="10px" y="31" clip-path="url(#clipPath2)" stroke="none">36 000</text>
            <text x="984" xml:space="preserve" font-size="10px" y="837" clip-path="url(#clipPath2)" stroke="none">36 000</text>
            <line y2="38" fill="none" x1="1025" clip-path="url(#clipPath2)" x2="1025" y1="36"/>
            <line y2="822" fill="none" x1="1025" clip-path="url(#clipPath2)" x2="1025" y1="824"/>
            <line y2="38" fill="none" x1="1052" clip-path="url(#clipPath2)" x2="1052" y1="34"/>
            <line y2="822" fill="none" x1="1052" clip-path="url(#clipPath2)" x2="1052" y1="826"/>
            <text x="1038" xml:space="preserve" font-size="10px" y="31" clip-path="url(#clipPath2)" stroke="none">38 000</text>
            <text x="1038" xml:space="preserve" font-size="10px" y="837" clip-path="url(#clipPath2)" stroke="none">38 000</text>
            <line y2="38" fill="none" x1="1078" clip-path="url(#clipPath2)" x2="1078" y1="36"/>
            <line y2="822" fill="none" x1="1078" clip-path="url(#clipPath2)" x2="1078" y1="824"/>
            <line y2="38" fill="none" x1="1105" clip-path="url(#clipPath2)" x2="1105" y1="34"/>
            <line y2="822" fill="none" x1="1105" clip-path="url(#clipPath2)" x2="1105" y1="826"/>
            <text x="1091" xml:space="preserve" font-size="10px" y="31" clip-path="url(#clipPath2)" stroke="none">40 000</text>
            <text x="1091" xml:space="preserve" font-size="10px" y="837" clip-path="url(#clipPath2)" stroke="none">40 000</text>
            <line y2="38" fill="none" x1="1131" clip-path="url(#clipPath2)" x2="1131" y1="36"/>
            <line y2="822" fill="none" x1="1131" clip-path="url(#clipPath2)" x2="1131" y1="824"/>
            <line y2="38" fill="none" x1="1158" clip-path="url(#clipPath2)" x2="1158" y1="34"/>
            <line y2="822" fill="none" x1="1158" clip-path="url(#clipPath2)" x2="1158" y1="826"/>
            <text x="1144" xml:space="preserve" font-size="10px" y="31" clip-path="url(#clipPath2)" stroke="none">42 000</text>
            <text x="1144" xml:space="preserve" font-size="10px" y="837" clip-path="url(#clipPath2)" stroke="none">42 000</text>
            <line y2="38" fill="none" x1="1185" clip-path="url(#clipPath2)" x2="1185" y1="36"/>
            <line y2="822" fill="none" x1="1185" clip-path="url(#clipPath2)" x2="1185" y1="824"/>
            <line y2="38" fill="none" x1="1211" clip-path="url(#clipPath2)" x2="1211" y1="34"/>
            <line y2="822" fill="none" x1="1211" clip-path="url(#clipPath2)" x2="1211" y1="826"/>
            <text x="1197" xml:space="preserve" font-size="10px" y="31" clip-path="url(#clipPath2)" stroke="none">44 000</text>
            <text x="1197" xml:space="preserve" font-size="10px" y="837" clip-path="url(#clipPath2)" stroke="none">44 000</text>
            <line y2="38" fill="none" x1="1238" clip-path="url(#clipPath2)" x2="1238" y1="36"/>
            <line y2="822" fill="none" x1="1238" clip-path="url(#clipPath2)" x2="1238" y1="824"/>
            <line y2="38" fill="none" x1="1265" clip-path="url(#clipPath2)" x2="1265" y1="34"/>
            <line y2="822" fill="none" x1="1265" clip-path="url(#clipPath2)" x2="1265" y1="826"/>
            <text x="1251" xml:space="preserve" font-size="10px" y="31" clip-path="url(#clipPath2)" stroke="none">46 000</text>
            <text x="1251" xml:space="preserve" font-size="10px" y="837" clip-path="url(#clipPath2)" stroke="none">46 000</text>
            <line y2="38" fill="none" x1="1291" clip-path="url(#clipPath2)" x2="1291" y1="36"/>
            <line y2="822" fill="none" x1="1291" clip-path="url(#clipPath2)" x2="1291" y1="824"/>
            <line y2="38" fill="none" x1="1318" clip-path="url(#clipPath2)" x2="1318" y1="34"/>
            <line y2="822" fill="none" x1="1318" clip-path="url(#clipPath2)" x2="1318" y1="826"/>
            <text x="1304" xml:space="preserve" font-size="10px" y="31" clip-path="url(#clipPath2)" stroke="none">48 000</text>
            <text x="1304" xml:space="preserve" font-size="10px" y="837" clip-path="url(#clipPath2)" stroke="none">48 000</text>
            <line y2="38" fill="none" x1="1345" clip-path="url(#clipPath2)" x2="1345" y1="36"/>
            <line y2="822" fill="none" x1="1345" clip-path="url(#clipPath2)" x2="1345" y1="824"/>
            <line y2="38" fill="none" x1="1371" clip-path="url(#clipPath2)" x2="1371" y1="34"/>
            <line y2="822" fill="none" x1="1371" clip-path="url(#clipPath2)" x2="1371" y1="826"/>
            <text x="1357" xml:space="preserve" font-size="10px" y="31" clip-path="url(#clipPath2)" stroke="none">50 000</text>
            <text x="1357" xml:space="preserve" font-size="10px" y="837" clip-path="url(#clipPath2)" stroke="none">50 000</text>
            <line y2="38" fill="none" x1="1398" clip-path="url(#clipPath2)" x2="1398" y1="36"/>
            <line y2="822" fill="none" x1="1398" clip-path="url(#clipPath2)" x2="1398" y1="824"/>
            <line y2="38" fill="none" x1="1424" clip-path="url(#clipPath2)" x2="1424" y1="34"/>
            <line y2="822" fill="none" x1="1424" clip-path="url(#clipPath2)" x2="1424" y1="826"/>
            <text x="1410" xml:space="preserve" font-size="10px" y="31" clip-path="url(#clipPath2)" stroke="none">52 000</text>
            <text x="1410" xml:space="preserve" font-size="10px" y="837" clip-path="url(#clipPath2)" stroke="none">52 000</text>
            <line y2="38" fill="none" x1="1451" clip-path="url(#clipPath2)" x2="1451" y1="36"/>
            <line y2="822" fill="none" x1="1451" clip-path="url(#clipPath2)" x2="1451" y1="824"/>
            <line y2="38" fill="none" x1="1478" clip-path="url(#clipPath2)" x2="1478" y1="34"/>
            <line y2="822" fill="none" x1="1478" clip-path="url(#clipPath2)" x2="1478" y1="826"/>
            <text x="1464" xml:space="preserve" font-size="10px" y="31" clip-path="url(#clipPath2)" stroke="none">54 000</text>
            <text x="1464" xml:space="preserve" font-size="10px" y="837" clip-path="url(#clipPath2)" stroke="none">54 000</text>
            <line y2="38" fill="none" x1="1504" clip-path="url(#clipPath2)" x2="1504" y1="36"/>
            <line y2="822" fill="none" x1="1504" clip-path="url(#clipPath2)" x2="1504" y1="824"/>
            <line y2="38" fill="none" x1="1531" clip-path="url(#clipPath2)" x2="1531" y1="34"/>
            <line y2="822" fill="none" x1="1531" clip-path="url(#clipPath2)" x2="1531" y1="826"/>
            <text x="1517" xml:space="preserve" font-size="10px" y="31" clip-path="url(#clipPath2)" stroke="none">56 000</text>
            <text x="1517" xml:space="preserve" font-size="10px" y="837" clip-path="url(#clipPath2)" stroke="none">56 000</text>
            <line y2="820" fill="none" x1="38" clip-path="url(#clipPath2)" x2="38" y1="40"/>
            <line y2="820" fill="none" x1="1557" clip-path="url(#clipPath2)" x2="1557" y1="40"/>
            <line y2="817" fill="none" x1="36" clip-path="url(#clipPath2)" x2="38" y1="817"/>
            <line y2="817" fill="none" x1="1559" clip-path="url(#clipPath2)" x2="1557" y1="817"/>
            <line y2="797" fill="none" x1="36" clip-path="url(#clipPath2)" x2="38" y1="797"/>
            <line y2="797" fill="none" x1="1559" clip-path="url(#clipPath2)" x2="1557" y1="797"/>
            <line y2="778" fill="none" x1="36" clip-path="url(#clipPath2)" x2="38" y1="778"/>
            <line y2="778" fill="none" x1="1559" clip-path="url(#clipPath2)" x2="1557" y1="778"/>
            <line y2="758" fill="none" x1="36" clip-path="url(#clipPath2)" x2="38" y1="758"/>
            <line y2="758" fill="none" x1="1559" clip-path="url(#clipPath2)" x2="1557" y1="758"/>
            <line y2="739" fill="none" x1="34" clip-path="url(#clipPath2)" x2="38" y1="739"/>
            <line y2="739" fill="none" x1="1561" clip-path="url(#clipPath2)" x2="1557" y1="739"/>
            <text x="27" xml:space="preserve" font-size="10px" y="743" clip-path="url(#clipPath2)" stroke="none">5</text>
            <text x="1564" xml:space="preserve" font-size="10px" y="743" clip-path="url(#clipPath2)" stroke="none">5</text>
            <line y2="719" fill="none" x1="36" clip-path="url(#clipPath2)" x2="38" y1="719"/>
            <line y2="719" fill="none" x1="1559" clip-path="url(#clipPath2)" x2="1557" y1="719"/>
            <line y2="700" fill="none" x1="36" clip-path="url(#clipPath2)" x2="38" y1="700"/>
            <line y2="700" fill="none" x1="1559" clip-path="url(#clipPath2)" x2="1557" y1="700"/>
            <line y2="680" fill="none" x1="36" clip-path="url(#clipPath2)" x2="38" y1="680"/>
            <line y2="680" fill="none" x1="1559" clip-path="url(#clipPath2)" x2="1557" y1="680"/>
            <line y2="661" fill="none" x1="36" clip-path="url(#clipPath2)" x2="38" y1="661"/>
            <line y2="661" fill="none" x1="1559" clip-path="url(#clipPath2)" x2="1557" y1="661"/>
            <line y2="641" fill="none" x1="34" clip-path="url(#clipPath2)" x2="38" y1="641"/>
            <line y2="641" fill="none" x1="1561" clip-path="url(#clipPath2)" x2="1557" y1="641"/>
            <text x="21" xml:space="preserve" font-size="10px" y="645" clip-path="url(#clipPath2)" stroke="none">10</text>
            <text x="1564" xml:space="preserve" font-size="10px" y="645" clip-path="url(#clipPath2)" stroke="none">10</text>
            <line y2="622" fill="none" x1="36" clip-path="url(#clipPath2)" x2="38" y1="622"/>
            <line y2="622" fill="none" x1="1559" clip-path="url(#clipPath2)" x2="1557" y1="622"/>
            <line y2="602" fill="none" x1="36" clip-path="url(#clipPath2)" x2="38" y1="602"/>
            <line y2="602" fill="none" x1="1559" clip-path="url(#clipPath2)" x2="1557" y1="602"/>
            <line y2="583" fill="none" x1="36" clip-path="url(#clipPath2)" x2="38" y1="583"/>
            <line y2="583" fill="none" x1="1559" clip-path="url(#clipPath2)" x2="1557" y1="583"/>
            <line y2="563" fill="none" x1="36" clip-path="url(#clipPath2)" x2="38" y1="563"/>
            <line y2="563" fill="none" x1="1559" clip-path="url(#clipPath2)" x2="1557" y1="563"/>
            <line y2="543" fill="none" x1="34" clip-path="url(#clipPath2)" x2="38" y1="543"/>
            <line y2="543" fill="none" x1="1561" clip-path="url(#clipPath2)" x2="1557" y1="543"/>
            <text x="21" xml:space="preserve" font-size="10px" y="547" clip-path="url(#clipPath2)" stroke="none">15</text>
            <text x="1564" xml:space="preserve" font-size="10px" y="547" clip-path="url(#clipPath2)" stroke="none">15</text>
            <line y2="524" fill="none" x1="36" clip-path="url(#clipPath2)" x2="38" y1="524"/>
            <line y2="524" fill="none" x1="1559" clip-path="url(#clipPath2)" x2="1557" y1="524"/>
            <line y2="504" fill="none" x1="36" clip-path="url(#clipPath2)" x2="38" y1="504"/>
            <line y2="504" fill="none" x1="1559" clip-path="url(#clipPath2)" x2="1557" y1="504"/>
            <line y2="485" fill="none" x1="36" clip-path="url(#clipPath2)" x2="38" y1="485"/>
            <line y2="485" fill="none" x1="1559" clip-path="url(#clipPath2)" x2="1557" y1="485"/>
            <line y2="465" fill="none" x1="36" clip-path="url(#clipPath2)" x2="38" y1="465"/>
            <line y2="465" fill="none" x1="1559" clip-path="url(#clipPath2)" x2="1557" y1="465"/>
            <line y2="446" fill="none" x1="34" clip-path="url(#clipPath2)" x2="38" y1="446"/>
            <line y2="446" fill="none" x1="1561" clip-path="url(#clipPath2)" x2="1557" y1="446"/>
            <text x="21" xml:space="preserve" font-size="10px" y="450" clip-path="url(#clipPath2)" stroke="none">20</text>
            <text x="1564" xml:space="preserve" font-size="10px" y="450" clip-path="url(#clipPath2)" stroke="none">20</text>
            <line y2="426" fill="none" x1="36" clip-path="url(#clipPath2)" x2="38" y1="426"/>
            <line y2="426" fill="none" x1="1559" clip-path="url(#clipPath2)" x2="1557" y1="426"/>
            <line y2="407" fill="none" x1="36" clip-path="url(#clipPath2)" x2="38" y1="407"/>
            <line y2="407" fill="none" x1="1559" clip-path="url(#clipPath2)" x2="1557" y1="407"/>
            <line y2="387" fill="none" x1="36" clip-path="url(#clipPath2)" x2="38" y1="387"/>
            <line y2="387" fill="none" x1="1559" clip-path="url(#clipPath2)" x2="1557" y1="387"/>
            <line y2="368" fill="none" x1="36" clip-path="url(#clipPath2)" x2="38" y1="368"/>
            <line y2="368" fill="none" x1="1559" clip-path="url(#clipPath2)" x2="1557" y1="368"/>
            <line y2="348" fill="none" x1="34" clip-path="url(#clipPath2)" x2="38" y1="348"/>
            <line y2="348" fill="none" x1="1561" clip-path="url(#clipPath2)" x2="1557" y1="348"/>
            <text x="21" xml:space="preserve" font-size="10px" y="352" clip-path="url(#clipPath2)" stroke="none">25</text>
            <text x="1564" xml:space="preserve" font-size="10px" y="352" clip-path="url(#clipPath2)" stroke="none">25</text>
            <line y2="329" fill="none" x1="36" clip-path="url(#clipPath2)" x2="38" y1="329"/>
            <line y2="329" fill="none" x1="1559" clip-path="url(#clipPath2)" x2="1557" y1="329"/>
            <line y2="309" fill="none" x1="36" clip-path="url(#clipPath2)" x2="38" y1="309"/>
            <line y2="309" fill="none" x1="1559" clip-path="url(#clipPath2)" x2="1557" y1="309"/>
            <line y2="290" fill="none" x1="36" clip-path="url(#clipPath2)" x2="38" y1="290"/>
            <line y2="290" fill="none" x1="1559" clip-path="url(#clipPath2)" x2="1557" y1="290"/>
            <line y2="270" fill="none" x1="36" clip-path="url(#clipPath2)" x2="38" y1="270"/>
            <line y2="270" fill="none" x1="1559" clip-path="url(#clipPath2)" x2="1557" y1="270"/>
            <line y2="250" fill="none" x1="34" clip-path="url(#clipPath2)" x2="38" y1="250"/>
            <line y2="250" fill="none" x1="1561" clip-path="url(#clipPath2)" x2="1557" y1="250"/>
            <text x="21" xml:space="preserve" font-size="10px" y="254" clip-path="url(#clipPath2)" stroke="none">30</text>
            <text x="1564" xml:space="preserve" font-size="10px" y="254" clip-path="url(#clipPath2)" stroke="none">30</text>
            <line y2="231" fill="none" x1="36" clip-path="url(#clipPath2)" x2="38" y1="231"/>
            <line y2="231" fill="none" x1="1559" clip-path="url(#clipPath2)" x2="1557" y1="231"/>
            <line y2="211" fill="none" x1="36" clip-path="url(#clipPath2)" x2="38" y1="211"/>
            <line y2="211" fill="none" x1="1559" clip-path="url(#clipPath2)" x2="1557" y1="211"/>
            <line y2="192" fill="none" x1="36" clip-path="url(#clipPath2)" x2="38" y1="192"/>
            <line y2="192" fill="none" x1="1559" clip-path="url(#clipPath2)" x2="1557" y1="192"/>
            <line y2="172" fill="none" x1="36" clip-path="url(#clipPath2)" x2="38" y1="172"/>
            <line y2="172" fill="none" x1="1559" clip-path="url(#clipPath2)" x2="1557" y1="172"/>
            <line y2="153" fill="none" x1="34" clip-path="url(#clipPath2)" x2="38" y1="153"/>
            <line y2="153" fill="none" x1="1561" clip-path="url(#clipPath2)" x2="1557" y1="153"/>
            <text x="21" xml:space="preserve" font-size="10px" y="157" clip-path="url(#clipPath2)" stroke="none">35</text>
            <text x="1564" xml:space="preserve" font-size="10px" y="157" clip-path="url(#clipPath2)" stroke="none">35</text>
            <line y2="133" fill="none" x1="36" clip-path="url(#clipPath2)" x2="38" y1="133"/>
            <line y2="133" fill="none" x1="1559" clip-path="url(#clipPath2)" x2="1557" y1="133"/>
            <line y2="114" fill="none" x1="36" clip-path="url(#clipPath2)" x2="38" y1="114"/>
            <line y2="114" fill="none" x1="1559" clip-path="url(#clipPath2)" x2="1557" y1="114"/>
            <line y2="94" fill="none" x1="36" clip-path="url(#clipPath2)" x2="38" y1="94"/>
            <line y2="94" fill="none" x1="1559" clip-path="url(#clipPath2)" x2="1557" y1="94"/>
            <line y2="75" fill="none" x1="36" clip-path="url(#clipPath2)" x2="38" y1="75"/>
            <line y2="75" fill="none" x1="1559" clip-path="url(#clipPath2)" x2="1557" y1="75"/>
            <line y2="55" fill="none" x1="34" clip-path="url(#clipPath2)" x2="38" y1="55"/>
            <line y2="55" fill="none" x1="1561" clip-path="url(#clipPath2)" x2="1557" y1="55"/>
            <text x="21" xml:space="preserve" font-size="10px" y="59" clip-path="url(#clipPath2)" stroke="none">40</text>
            <text x="1564" xml:space="preserve" font-size="10px" y="59" clip-path="url(#clipPath2)" stroke="none">40</text>
        </g>
    </g>
</svg>
